<svg id="图层_1" data-name="图层 1" xmlns="http://www.w3.org/2000/svg" viewBox="0 0 581.76 604.08"><path d="M426.88,260.56q7.19,0,7.2,12.24v7.92q61.92,36,61.92,65.52,0,15.12-17.28,78.48-5.78,26.64-15.12,103.68,59.76-101.52,107.28-223.2-5.77,45.36-13.68,93.6l17.28,7.92q92.16-19.44,143.28-43.2,23-20.88,30.24-80.64a411.83,411.83,0,0,0-70.56,25.92q-25.92,15.84-38.88,15.84-24.48,0-24.48-32.4,0-28.08,7.2-33.12l11.52-6.48A671.74,671.74,0,0,0,664.48,172q-10.1-13.67-10.08-26.64,0-10.8,25.2-13,14.4,0,23.76,8.64,30.95,25.92,31,40.32,0,10.8-13,28.08-10.8,15.12-20.88,31.68,23.76-7.19,49-14.4v-97.2q-25.22-25.2-25.2-38.16,0-13.67,28.8-19.44,15.12,0,54,23,21.6,14.42,21.6,33.84,0,12.25-7.2,38.16,8.64,8.64,36,15.12,41,13,41,39.6,0,27.38-21.6,31.68-43.92,7.2-67.68,15.12-5,29.53-9.36,50.4-5,18.74-20.88,33.84Q828.64,346.24,879,337.6q24.47-23,35.28-23,14.4,0,43.2,15.84,26.63,13.68,26.64,39.6,0,31.69-31,31.68-66.26-5.76-87.84-5.76-109.46,0-232.56,55.44-17.28,7.93-23,7.92-32.4,0-56.88-36-31,131.76-66.24,205.2Q478,676,465.76,676q-23.06,0-38.88-43.2-10.8-27.36-10.8-49,0-5.76,7.92-31.68,11.5-93.58,19.44-161.28-41-31.68-41-67.68a185.39,185.39,0,0,1,6.48-47.52Q414.64,260.56,426.88,260.56Zm77-72q-46.82-44.64-46.8-66.24,0-13,9.36-13A193.36,193.36,0,0,0,503.2,113q25.92,0,41,12.24,32.4,30.24,32.4,66.24,0,29.53-46.08,29.52a222.13,222.13,0,0,1-69.12,21.6Q485.2,220.26,503.92,188.56ZM665.92,465q0,5.77-3.6,18.72,0,8.64,6.48,18,47.52-27.36,167.76-47.52Q856,442,864.64,442q15.83,0,46.8,21.6,23.76,18.73,23.76,43.2,0,23.05-24.48,33.84Q892,559.38,874,575.92q15.82,15.84,15.84,31,0,26.64-28.8,26.64-67.68,0-125.28,7.2A64.8,64.8,0,0,1,709.12,635l2.16,18.72q0,17.28-16.56,17.28-24.48,0-46.08-54-18-54-18-98.64,0-27.36,17.28-54Q652.24,455,658,455,665.92,455,665.92,465Zm18,73.44,14.4,61.2a80.38,80.38,0,0,1,25.92-7.2q89.26-14.4,117.36-92.88-38.18.72-87.12,14.4-31,7.93-45.36,7.92-6.48,0-33.12-5.76A124.53,124.53,0,0,1,683.92,538.48Z" transform="translate(-402.4 -71.92)"/></svg>